Coordinates
version=1
nRows=16
nColumns=36
inDegrees=yes

Units are S.I. units (second, meters, Newtons, ...)
If the header above contains a line with 'inDegrees', this indicates whether rotational values are in degrees (yes) or radians (no).

endheader
time	pelvis_tilt	pelvis_list	pelvis_rotation	pelvis_tx	pelvis_ty	pelvis_tz	hip_flexion_r	hip_adduction_r	hip_rotation_r	knee_angle_r	knee_angle_r_beta	ankle_angle_r	subtalar_angle_r	mtp_angle_r	hip_flexion_l	hip_adduction_l	hip_rotation_l	knee_angle_l	knee_angle_l_beta	ankle_angle_l	subtalar_angle_l	mtp_angle_l	lumbar_extension	lumbar_bending	lumbar_rotation	arm_flex_r	arm_add_r	arm_rot_r	elbow_flex_r	pro_sup_r	arm_flex_l	arm_add_l	arm_rot_l	elbow_flex_l	pro_sup_l
      3.48000000	     -3.36842603	      2.41195314	      2.29524435	     -0.48792442	      0.57141683	     -0.65852421	     91.85457982	    -10.47758667	      6.25731585	    103.06529979	      1.79882883	     24.27269542	     -0.43384652	     -7.49999986	     89.91027099	     -7.17595076	      1.80928083	     98.34121819	      1.71637805	     21.99071240	     -5.17183887	     -7.49999986	    -32.62423581	      1.33525192	     -4.91403665	     59.88115033	    -13.13764474	     25.92565486	    111.34007485	     92.31967687	     64.65858039	    -14.50718835	     23.94246627	    107.32089150	    100.21273162
      3.49000000	     -4.41693749	      2.34940388	      2.35989090	     -0.48570683	      0.57092475	     -0.65745982	     92.70579407	    -10.48265661	      6.09484580	    102.98540458	      1.79743439	     24.35494517	     -0.49500336	     -7.49999986	     90.82608686	     -7.39097578	      1.75942029	     98.22531096	      1.71435509	     22.16453717	     -4.96346707	     -7.49999986	    -32.38271377	      1.30801054	     -5.02544761	     62.25403272	    -13.08096306	     26.65476784	    110.34666539	     92.31964492	     66.90154326	    -14.97975799	     24.53461660	    106.53606381	    100.23623028
      3.50000000	     -5.43596603	      2.28293610	      2.44845714	     -0.48321518	      0.57057449	     -0.65628776	     93.50095100	    -10.55380633	      5.87522750	    102.92716304	      1.79641788	     24.38038005	     -0.58146684	     -7.49999986	     91.67582872	     -7.60136925	      1.73398497	     98.08468118	      1.71190063	     22.23387617	     -4.75681632	     -7.49999986	    -32.13004757	      1.23283657	     -5.18427438	     64.75711363	    -13.05639642	     27.42894652	    109.25721162	     92.29665668	     69.29262451	    -15.56160858	     25.35261091	    105.64402785	    100.25708611
      3.51000000	     -6.33283528	      2.33267504	      2.59735082	     -0.48044219	      0.57074175	     -0.65529957	     94.15651768	    -10.78528280	      5.72503264	    102.89838003	      1.79591553	     24.38292572	     -0.74596932	     -7.49999986	     92.27702643	     -7.72262556	      1.56054620	     97.86583034	      1.70808096	     22.17835309	     -4.59854584	     -7.49999986	    -32.08711547	      1.07755870	     -5.46152904	     67.43258067	    -13.03012853	     28.24914532	    108.20947720	     92.26788453	     71.81113799	    -16.06743190	     26.12873518	    104.77780366	    100.29177873
      3.52000000	     -7.18235643	      2.50558384	      2.88037559	     -0.47750260	      0.57144120	     -0.65497063	     94.74736854	    -11.22595450	      5.75903282	    102.83442265	      1.79479926	     24.45561327	     -0.89074712	     -7.49999986	     92.67725989	     -7.64101154	      1.18229482	     97.51120955	      1.70189166	     22.01597309	     -4.52727702	     -7.49999986	    -32.18268611	      0.91336376	     -5.88324965	     70.14524468	    -12.95856693	     28.96014935	    107.28595350	     92.24201676	     74.37094971	    -16.34586176	     26.69254531	    103.91395623	    100.30058675
      3.53000000	     -7.98634394	      2.70869494	      3.20827169	     -0.47451200	      0.57248204	     -0.65491042	     95.25757585	    -11.70154351	      5.84093290	    102.76453750	      1.79357953	     24.58631717	     -1.00196079	     -7.49999986	     92.98377300	     -7.50149741	      0.74273485	     97.11920477	      1.69504989	     21.76028979	     -4.47661962	     -7.49999986	    -32.31698678	      0.75983985	     -6.38896310	     72.98629700	    -12.85593657	     29.73284283	    106.23899926	     92.21220698	     77.02081629	    -16.64741606	     27.36899670	    102.96451682	    100.31055785
      3.54000000	     -8.86971176	      2.78042746	      3.46627767	     -0.47151590	      0.57356832	     -0.65440522	     95.75102877	    -11.89939224	      5.80601366	    102.63848264	      1.79137946	     24.78142687	     -1.14081627	     -7.49999986	     93.40742407	     -7.42082545	      0.51099287	     96.74495887	      1.68851807	     21.55998180	     -4.39032383	     -7.49999986	    -32.32068839	      0.65631297	     -6.75816864	     75.74940075	    -12.68367586	     30.41440875	    105.20622721	     92.16362161	     79.58714143	    -16.86306014	     27.90613761	    102.00252565	    100.30773004
      3.55000000	     -9.70632872	      2.75657683	      3.62116660	     -0.46844149	      0.57491229	     -0.65344434	     96.10670867	    -11.83138663	      5.70245120	    102.47718591	      1.78856430	     25.00376642	     -1.42070942	     -7.49999986	     93.79606621	     -7.45434790	      0.45170878	     96.41864149	      1.68282275	     21.46439502	     -4.33244372	     -7.49999986	    -32.36411443	      0.57760334	     -6.98602436	     78.49919182	    -12.43310420	     31.03707392	    104.16168020	     92.10211132	     82.10611925	    -17.05716668	     28.37692366	    101.05278537	    100.31816278
      3.56000000	    -10.48839946	      2.73530575	      3.74590010	     -0.46528855	      0.57670297	     -0.65252757	     96.34973527	    -11.64641238	      5.68731986	    102.25719531	      1.78472474	     25.18269938	     -1.85782924	     -7.49999986	     94.07237429	     -7.47182678	      0.43343313	     96.08014396	      1.67691486	     21.49981750	     -4.34178393	     -7.49999986	    -32.47701542	      0.50546758	     -7.18124765	     81.14303861	    -12.04242802	     31.37321555	    103.21377938	     92.06085825	     84.51653134	    -17.12567925	     28.69478506	    100.16608677	    100.32755743
      3.57000000	    -11.21879370	      2.76294552	      3.91560715	     -0.46212087	      0.57892173	     -0.65184728	     96.50310987	    -11.42876446	      5.81241431	    102.01151426	      1.78043680	     25.29328701	     -2.44345748	     -7.49999986	     94.22989251	     -7.35867056	      0.36969869	     95.70171966	      1.67031011	     21.56147558	     -4.40198823	     -7.49999986	    -32.62010065	      0.43752173	     -7.42700749	     83.70816746	    -11.60849295	     31.66078937	    102.28535496	     92.06942654	     86.86368028	    -17.16519333	     29.07257116	     99.27452122	    100.34812608
      3.58000000	    -11.93666365	      2.75556853	      4.11524131	     -0.45904807	      0.58142204	     -0.65111445	     96.59560237	    -11.14493613	      5.96282362	    101.72469669	      1.77543089	     25.15897020	     -3.37628184	     -7.49999986	     94.35144935	     -7.18655876	      0.35615204	     95.26046494	      1.66260876	     21.54047495	     -4.58126398	     -7.49999986	    -32.74839968	      0.41430612	     -7.66293677	     86.13172315	    -11.19072344	     31.97839484	    101.50770932	     92.23066774	     89.12393731	    -17.21864635	     29.48916295	     98.51083803	    100.52824845
      3.59000000	    -12.69186871	      2.71571936	      4.35226429	     -0.45603070	      0.58409396	     -0.65038112	     96.68451960	    -10.87380625	      6.09135148	    101.42950399	      1.77027880	     25.40680462	     -3.85288211	     -7.49999987	     94.50008784	     -6.92851212	      0.43947616	     94.77044658	      1.65405633	     21.53966330	     -4.60649431	     -7.49999987	    -32.66876256	      0.41886586	     -7.80052923	     88.27351407	    -10.85170206	     32.32047582	    100.72020444	     92.22515995	     90.95723660	    -16.95536329	     29.60926748	     97.48098109	    100.49674661
      3.60000000	    -13.57103738	      2.63749447	      4.53488362	     -0.45293016	      0.58696431	     -0.64947598	     96.84252063	    -10.48295939	      6.22425966	    101.06881703	      1.76398363	     25.54294263	     -4.00800660	     -7.49999987	     94.74021328	     -6.77275035	      0.52217216	     94.23729710	      1.64475111	     21.60030954	     -4.59948718	     -7.49999987	    -32.42259500	      0.43188921	     -7.83439823	     89.89269436	    -10.32309955	     32.08129556	    100.56671900	     92.20912445	     92.30509208	    -16.58089292	     29.36801830	     97.14421943	    100.45894905
      3.61000000	    -13.92666213	      2.54201753	      4.78130619	     -0.45010735	      0.59092583	     -0.64862983	     96.36743263	    -10.20685262	      6.22237630	    100.62821661	      1.75629370	     25.74666751	     -5.08493388	     -7.49999987	     94.43269180	     -6.59259038	      0.58165056	     93.69697015	      1.63532063	     21.49531130	     -4.66878581	     -7.49999987	    -32.70958970	      0.55474548	     -7.99714919	     91.85442794	     -9.83466780	     32.44711744	     99.56567093	     92.17805503	     94.10881338	    -16.45338106	     29.64125877	     96.05005588	    100.43871300
      3.62000000	    -14.57699213	      2.41527933	      5.04242573	     -0.44716517	      0.59475697	     -0.64770714	     96.16704139	     -9.92232769	      6.24696369	    100.12344836	      1.74748383	     25.73658632	     -5.91384598	     -7.49999987	     94.37779844	     -6.44130705	      0.63873145	     93.06084354	      1.62421812	     21.38570952	     -4.67532477	     -7.49999987	    -32.60083977	      0.64517869	     -8.12410410	     93.19960965	     -9.30681352	     32.32163261	     99.26276333	     92.18612115	     95.37034506	    -16.22426190	     29.63205392	     95.59717937	    100.47533615
      3.63000000	    -15.35623443	      2.29548769	      5.27953139	     -0.44419968	      0.59875408	     -0.64671920	     96.09337372	     -9.66840317	      6.28493179	     99.57228515	      1.73786422	     25.80649965	     -6.06040667	     -7.49999987	     94.39771650	     -6.33663169	      0.66397521	     92.34788580	      1.61177466	     21.39709733	     -4.61226202	     -7.49999987	    -32.23815734	      0.69557357	     -8.15797866	     94.10323452	     -8.84196037	     32.09699896	     99.30677720	     92.18533153	     96.16730993	    -15.88569246	     29.45251403	     95.45339907	    100.46252426
